<svg width="159" height="124" viewBox="0 0 159 124" fill="none" xmlns="http://www.w3.org/2000/svg">
<g opacity="0.5" filter="url(#filter0_d)">
<path d="M125.308 28.4881C128.248 27.603 129.525 23.9527 127.535 21.6147L119.156 11.7728C118.223 10.677 116.777 10.151 115.382 10.5038C98.0838 14.8779 73.6912 32.7622 73.6912 63.8925C73.6912 77.7419 78.4755 86.7742 85.0539 90.6882C88.3431 92.7957 92.8284 94 98.8088 94C115.554 94 120.637 84.3656 120.637 72.9248C120.637 61.4839 115.554 51.8495 98.8088 51.8495C98.4993 51.8495 98.2663 51.568 98.3371 51.2667C100.467 42.1992 110.281 33.0116 125.308 28.4881ZM61.5892 28.4712C64.5372 27.5952 65.8224 23.9395 63.8289 21.5977L55.4651 11.7728C54.5322 10.677 53.0859 10.151 51.6907 10.5038C34.3926 14.8779 10 32.7622 10 63.8925C10 77.7419 14.7843 86.7742 21.3627 90.6882C24.652 92.7957 29.1373 94 35.1176 94C51.8627 94 56.9461 84.3656 56.9461 72.9248C56.9461 61.4839 51.8627 51.8495 35.1176 51.8495C34.8081 51.8495 34.5752 51.568 34.6457 51.2666C36.7693 42.1878 46.3863 32.9887 61.5892 28.4712Z" fill="url(#paint0_linear)"/>
</g>
<defs>
<filter id="filter0_d" x="0" y="0.39502" width="158.495" height="123.605" filterUnits="userSpaceOnUse" color-interpolation-filters="sRGB">
<feFlood flood-opacity="0" result="BackgroundImageFix"/>
<feColorMatrix in="SourceAlpha" type="matrix" values="0 0 0 0 0 0 0 0 0 0 0 0 0 0 0 0 0 0 127 0"/>
<feOffset dx="10" dy="10"/>
<feGaussianBlur stdDeviation="10"/>
<feColorMatrix type="matrix" values="0 0 0 0 0 0 0 0 0 0.904167 0 0 0 0 0.00927361 0 0 0 0.4 0"/>
<feBlend mode="normal" in2="BackgroundImageFix" result="effect1_dropShadow"/>
<feBlend mode="normal" in="SourceGraphic" in2="effect1_dropShadow" result="shape"/>
</filter>
<linearGradient id="paint0_linear" x1="132" y1="52" x2="10" y2="52" gradientUnits="userSpaceOnUse">
<stop stop-color="#24E029"/>
<stop offset="1" stop-color="#00B9AC"/>
</linearGradient>
</defs>
</svg>
