<svg width="230" height="61" viewBox="0 0 230 61" fill="none" xmlns="http://www.w3.org/2000/svg">
<path d="M213.775 12.2085H198.092V49.0893H206.312V38.6426H213.775C223.782 38.6426 230 33.5481 230 25.4073C230 17.2666 223.784 12.2085 213.775 12.2085ZM213.599 32.5016H206.312V18.3496H213.599C218.865 18.3496 221.767 20.8624 221.767 25.4256C221.767 29.9888 218.867 32.5016 213.599 32.5016Z" fill="#21A038"/>
<path d="M181.832 18.3496L190.438 12.2085H161.633V49.0893H190.438V42.9483H169.853V33.5075H187.411V27.3665H169.853V18.3496H181.832Z" fill="#21A038"/>
<path d="M139.894 26.5856H129.891V18.3496H145.86L154.466 12.2085H121.67V49.0893H138.834C148.46 49.0893 153.982 44.8668 153.982 37.5028C153.982 30.4633 148.978 26.5856 139.894 26.5856ZM138.463 42.9483H129.891V32.7247H138.463C143.682 32.7247 146.112 34.4343 146.112 37.8355C146.11 41.3116 143.537 42.9483 138.463 42.9483Z" fill="#21A038"/>
<path d="M107.556 41.1045C105.448 42.2301 102.993 42.8264 100.46 42.8264C93.0484 42.8264 87.6707 37.7054 87.6707 30.6497C87.6707 23.594 93.0505 18.473 100.46 18.473C103.263 18.473 105.777 19.2356 107.937 20.7384L113.832 16.5322L113.443 16.2016C110.001 13.273 105.4 11.7256 100.142 11.7256C94.4373 11.7256 89.2586 13.5874 85.5631 16.9702C81.8446 20.3713 79.7979 25.1576 79.7979 30.4469C79.7979 35.7605 81.8383 40.6178 85.5422 44.1223C89.2586 47.639 94.4248 49.5758 100.089 49.5758C106.016 49.5758 111.191 47.5761 114.698 43.9357C111.991 42.005 109.378 40.1412 109.378 40.1412L107.556 41.1045Z" fill="#21A038"/>
<path d="M31.3486 53.6835C30.944 53.6835 30.5436 53.6735 30.1432 53.6534L29.7822 60.6542C30.3009 60.6783 30.8237 60.6923 31.3486 60.6923C40.006 60.6923 47.844 57.2964 53.516 51.8038L48.3875 46.8394C44.0225 51.0647 37.9957 53.6835 31.3486 53.6835Z" fill="url(#paint0_linear)"/>
<path d="M7.24048 30.3478C7.24048 29.9562 7.25085 29.5686 7.27159 29.181L0.0394185 28.8315C0.0145229 29.3336 0 29.8397 0 30.3478C0 38.7283 3.50821 46.3155 9.18233 51.8061L14.3108 46.8416C9.94372 42.6163 7.24048 36.7823 7.24048 30.3478Z" fill="url(#paint1_linear)"/>
<path d="M31.3478 53.6847C24.2692 53.6847 17.8938 50.7165 13.479 45.9971L8.10156 50.7065C13.8379 56.8397 22.1281 60.6936 31.3478 60.6936V53.6847Z" fill="url(#paint2_linear)"/>
<path d="M62.6979 30.348C62.6979 28.4923 62.5257 26.6749 62.1958 24.9116L55.4471 29.7254C55.4533 29.9323 55.4554 30.1391 55.4554 30.348C55.4554 37.2002 52.3891 43.3715 47.5137 47.6451L52.3787 52.8505C58.7167 47.2997 62.6979 39.2747 62.6979 30.348Z" fill="#21A038"/>
<path d="M31.3472 7.01085C31.7517 7.01085 32.1521 7.02491 32.5525 7.04298L32.9135 0.0381575C32.3948 0.0140583 31.872 0 31.3472 0C22.6897 0 14.8517 3.39597 9.17969 8.88857L14.3082 13.853C18.6732 9.62761 24.7021 7.01085 31.3472 7.01085Z" fill="url(#paint3_linear)"/>
<path d="M56.1558 11.7949C57.6371 13.6465 58.9026 15.6689 59.913 17.8277L31.3474 38.2055L19.4141 30.9638V22.2519L31.3474 29.4937L56.1558 11.7949Z" fill="#21A038"/>
<path d="M15.1822 13.0496L10.3172 7.84424C3.98123 13.3971 0 21.4221 0 30.3468H7.24255C7.24047 23.4946 10.3068 17.3232 15.1822 13.0496Z" fill="url(#paint4_linear)"/>
<path d="M44.9386 11.0836L51.0359 6.73371C45.6543 2.52439 38.806 0 31.3477 0V7.01085C36.3869 7.01085 41.0673 8.51504 44.9386 11.0836Z" fill="url(#paint5_linear)"/>
<defs>
<linearGradient id="paint0_linear" x1="29.3051" y1="56.4637" x2="52.2774" y2="51.1001" gradientUnits="userSpaceOnUse">
<stop offset="0.1226" stop-color="#A3CD39"/>
<stop offset="0.2846" stop-color="#86C339"/>
<stop offset="0.8693" stop-color="#21A038"/>
</linearGradient>
<linearGradient id="paint1_linear" x1="10.6461" y1="50.9296" x2="3.18089" y2="28.6378" gradientUnits="userSpaceOnUse">
<stop offset="0.1444" stop-color="#F2E913"/>
<stop offset="0.3037" stop-color="#E7E518"/>
<stop offset="0.5823" stop-color="#CADB26"/>
<stop offset="0.891" stop-color="#A3CD39"/>
</linearGradient>
<linearGradient id="paint2_linear" x1="9.91763" y1="49.8544" x2="31.1915" y2="58.0657" gradientUnits="userSpaceOnUse">
<stop offset="0.1324" stop-color="#F2E913"/>
<stop offset="0.2977" stop-color="#EBE716"/>
<stop offset="0.5306" stop-color="#D9E01F"/>
<stop offset="0.8023" stop-color="#BBD62D"/>
<stop offset="0.9829" stop-color="#A3CD39"/>
</linearGradient>
<linearGradient id="paint3_linear" x1="11.2485" y1="10.1302" x2="31.4572" y2="2.17451" gradientUnits="userSpaceOnUse">
<stop offset="0.0592" stop-color="#0FA8E0"/>
<stop offset="0.5385" stop-color="#0099F9"/>
<stop offset="0.9234" stop-color="#0291EB"/>
</linearGradient>
<linearGradient id="paint4_linear" x1="2.69582" y1="31.1972" x2="10.8294" y2="9.33931" gradientUnits="userSpaceOnUse">
<stop offset="0.0698" stop-color="#A3CD39"/>
<stop offset="0.2599" stop-color="#81C55F"/>
<stop offset="0.9216" stop-color="#0FA8E0"/>
</linearGradient>
<linearGradient id="paint5_linear" x1="29.8326" y1="2.35023" x2="49.4232" y2="8.59455" gradientUnits="userSpaceOnUse">
<stop offset="0.0566" stop-color="#0291EB"/>
<stop offset="0.79" stop-color="#0C8ACB"/>
</linearGradient>
</defs>
</svg>
