<svg width="6" height="6" viewBox="0 0 6 6" fill="none" xmlns="http://www.w3.org/2000/svg">
<path fill-rule="evenodd" clip-rule="evenodd" d="M0.185743 4.91407L2.09326 2.99499L0.185743 1.08748C-0.0570315 0.844703 -0.0570315 0.440078 0.185743 0.185743C0.440078 -0.0570315 0.844703 -0.0570315 1.08748 0.185743L2.99499 2.09326L4.91407 0.185743C5.15684 -0.0570315 5.56147 -0.0570315 5.8158 0.185743C6.05858 0.440078 6.05858 0.844703 5.8158 1.08748L3.89673 2.99499L5.8158 4.91407C6.05858 5.15684 6.05858 5.56147 5.8158 5.8158C5.56147 6.05858 5.15684 6.05858 4.91407 5.8158L2.99499 3.89673L1.08748 5.8158C0.844703 6.05858 0.440078 6.05858 0.185743 5.8158C-0.0570315 5.56147 -0.0570315 5.15684 0.185743 4.91407Z" fill="#78849B"/>
</svg>
